<svg xmlns="http://www.w3.org/2000/svg" width="900" height="52" viewBox="0 0 900 52" shape-rendering="crispEdges" role="img" aria-label="Kubernetes"><style></style><rect width="900" height="52" fill="#1d1e21"/><rect width="900" height="4" fill="#8a8a8a"/><rect y="48" width="900" height="4" fill="#4a4a4a"/><rect width="4" height="52" fill="#8a8a8a"/><rect x="896" width="4" height="52" fill="#4a4a4a"/><rect x="20" y="18" width="16" height="16" fill="#d9a441"/><rect x="20" y="18" width="16" height="3" fill="#f3d089"/><rect x="20" y="31" width="16" height="3" fill="#9a7428"/><path fill="#000000" d="M54 16h3v3h-3zM66 16h3v3h-3zM54 19h3v3h-3zM63 19h3v3h-3zM54 22h3v3h-3zM60 22h3v3h-3zM54 25h6v3h-6zM54 28h3v3h-3zM60 28h3v3h-3zM54 31h3v3h-3zM63 31h3v3h-3zM54 34h3v3h-3zM66 34h3v3h-3zM72 16h3v3h-3zM84 16h3v3h-3zM72 19h3v3h-3zM84 19h3v3h-3zM72 22h3v3h-3zM84 22h3v3h-3zM72 25h3v3h-3zM84 25h3v3h-3zM72 28h3v3h-3zM84 28h3v3h-3zM72 31h3v3h-3zM84 31h3v3h-3zM75 34h9v3h-9zM90 16h12v3h-12zM90 19h3v3h-3zM102 19h3v3h-3zM90 22h3v3h-3zM102 22h3v3h-3zM90 25h12v3h-12zM90 28h3v3h-3zM102 28h3v3h-3zM90 31h3v3h-3zM102 31h3v3h-3zM90 34h12v3h-12zM108 16h15v3h-15zM108 19h3v3h-3zM108 22h3v3h-3zM108 25h12v3h-12zM108 28h3v3h-3zM108 31h3v3h-3zM108 34h15v3h-15zM126 16h12v3h-12zM126 19h3v3h-3zM138 19h3v3h-3zM126 22h3v3h-3zM138 22h3v3h-3zM126 25h12v3h-12zM126 28h3v3h-3zM132 28h3v3h-3zM126 31h3v3h-3zM135 31h3v3h-3zM126 34h3v3h-3zM138 34h3v3h-3zM144 16h3v3h-3zM156 16h3v3h-3zM144 19h6v3h-6zM156 19h3v3h-3zM144 22h3v3h-3zM150 22h3v3h-3zM156 22h3v3h-3zM144 25h3v3h-3zM153 25h6v3h-6zM144 28h3v3h-3zM156 28h3v3h-3zM144 31h3v3h-3zM156 31h3v3h-3zM144 34h3v3h-3zM156 34h3v3h-3zM162 16h15v3h-15zM162 19h3v3h-3zM162 22h3v3h-3zM162 25h12v3h-12zM162 28h3v3h-3zM162 31h3v3h-3zM162 34h15v3h-15zM180 16h15v3h-15zM186 19h3v3h-3zM186 22h3v3h-3zM186 25h3v3h-3zM186 28h3v3h-3zM186 31h3v3h-3zM186 34h3v3h-3zM198 16h15v3h-15zM198 19h3v3h-3zM198 22h3v3h-3zM198 25h12v3h-12zM198 28h3v3h-3zM198 31h3v3h-3zM198 34h15v3h-15zM219 16h12v3h-12zM216 19h3v3h-3zM216 22h3v3h-3zM219 25h9v3h-9zM228 28h3v3h-3zM228 31h3v3h-3zM216 34h12v3h-12z"/><path fill="#ececec" d="M52 14h3v3h-3zM64 14h3v3h-3zM52 17h3v3h-3zM61 17h3v3h-3zM52 20h3v3h-3zM58 20h3v3h-3zM52 23h6v3h-6zM52 26h3v3h-3zM58 26h3v3h-3zM52 29h3v3h-3zM61 29h3v3h-3zM52 32h3v3h-3zM64 32h3v3h-3zM70 14h3v3h-3zM82 14h3v3h-3zM70 17h3v3h-3zM82 17h3v3h-3zM70 20h3v3h-3zM82 20h3v3h-3zM70 23h3v3h-3zM82 23h3v3h-3zM70 26h3v3h-3zM82 26h3v3h-3zM70 29h3v3h-3zM82 29h3v3h-3zM73 32h9v3h-9zM88 14h12v3h-12zM88 17h3v3h-3zM100 17h3v3h-3zM88 20h3v3h-3zM100 20h3v3h-3zM88 23h12v3h-12zM88 26h3v3h-3zM100 26h3v3h-3zM88 29h3v3h-3zM100 29h3v3h-3zM88 32h12v3h-12zM106 14h15v3h-15zM106 17h3v3h-3zM106 20h3v3h-3zM106 23h12v3h-12zM106 26h3v3h-3zM106 29h3v3h-3zM106 32h15v3h-15zM124 14h12v3h-12zM124 17h3v3h-3zM136 17h3v3h-3zM124 20h3v3h-3zM136 20h3v3h-3zM124 23h12v3h-12zM124 26h3v3h-3zM130 26h3v3h-3zM124 29h3v3h-3zM133 29h3v3h-3zM124 32h3v3h-3zM136 32h3v3h-3zM142 14h3v3h-3zM154 14h3v3h-3zM142 17h6v3h-6zM154 17h3v3h-3zM142 20h3v3h-3zM148 20h3v3h-3zM154 20h3v3h-3zM142 23h3v3h-3zM151 23h6v3h-6zM142 26h3v3h-3zM154 26h3v3h-3zM142 29h3v3h-3zM154 29h3v3h-3zM142 32h3v3h-3zM154 32h3v3h-3zM160 14h15v3h-15zM160 17h3v3h-3zM160 20h3v3h-3zM160 23h12v3h-12zM160 26h3v3h-3zM160 29h3v3h-3zM160 32h15v3h-15zM178 14h15v3h-15zM184 17h3v3h-3zM184 20h3v3h-3zM184 23h3v3h-3zM184 26h3v3h-3zM184 29h3v3h-3zM184 32h3v3h-3zM196 14h15v3h-15zM196 17h3v3h-3zM196 20h3v3h-3zM196 23h12v3h-12zM196 26h3v3h-3zM196 29h3v3h-3zM196 32h15v3h-15zM217 14h12v3h-12zM214 17h3v3h-3zM214 20h3v3h-3zM217 23h9v3h-9zM226 26h3v3h-3zM226 29h3v3h-3zM214 32h12v3h-12z"/><g id="vines"><rect x="0" y="0" width="6" height="6" fill="#4a7a3c"/><rect x="18" y="0" width="6" height="6" fill="#4a7a3c"/><rect x="30" y="0" width="6" height="6" fill="#4a7a3c"/><rect x="90" y="0" width="6" height="6" fill="#2f5229"/><rect x="126" y="0" width="6" height="6" fill="#4a7a3c"/><rect x="180" y="0" width="6" height="6" fill="#2f5229"/><rect x="186" y="0" width="6" height="6" fill="#4a7a3c"/><rect x="216" y="0" width="6" height="6" fill="#4a7a3c"/><rect x="318" y="0" width="6" height="6" fill="#4a7a3c"/><rect x="420" y="0" width="6" height="6" fill="#2f5229"/><rect x="474" y="0" width="6" height="6" fill="#2f5229"/><rect x="522" y="0" width="6" height="6" fill="#2f5229"/><rect x="588" y="0" width="6" height="6" fill="#2f5229"/><rect x="600" y="0" width="6" height="6" fill="#2f5229"/><rect x="666" y="0" width="6" height="6" fill="#2f5229"/><rect x="702" y="0" width="6" height="6" fill="#2f5229"/><rect x="780" y="0" width="6" height="6" fill="#2f5229"/><rect x="786" y="0" width="6" height="6" fill="#2f5229"/><rect x="798" y="0" width="6" height="6" fill="#4a7a3c"/><rect x="828" y="0" width="6" height="6" fill="#2f5229"/><rect x="894" y="0" width="6" height="6" fill="#4a7a3c"/><rect x="0" y="6" width="6" height="6" fill="#69a04f"/><rect x="6" y="6" width="6" height="6" fill="#69a04f"/><rect x="18" y="6" width="6" height="6" fill="#2f5229"/><rect x="30" y="6" width="6" height="6" fill="#2f5229"/><rect x="126" y="6" width="6" height="6" fill="#2f5229"/><rect x="186" y="6" width="6" height="6" fill="#2f5229"/><rect x="216" y="6" width="6" height="6" fill="#2f5229"/><rect x="318" y="6" width="6" height="6" fill="#2f5229"/><rect x="798" y="6" width="6" height="6" fill="#2f5229"/><rect x="828" y="6" width="6" height="6" fill="#2f5229"/><rect x="894" y="6" width="6" height="6" fill="#69a04f"/><rect x="0" y="12" width="6" height="6" fill="#4a7a3c"/><rect x="888" y="12" width="6" height="6" fill="#69a04f"/><rect x="894" y="12" width="6" height="6" fill="#4a7a3c"/><rect x="0" y="18" width="6" height="6" fill="#2f5229"/><rect x="888" y="18" width="6" height="6" fill="#2f5229"/><rect x="894" y="18" width="6" height="6" fill="#4a7a3c"/><rect x="888" y="24" width="6" height="6" fill="#4a7a3c"/><rect x="894" y="24" width="6" height="6" fill="#69a04f"/><rect x="36" y="28" width="6" height="6" fill="#2f5229"/><rect x="894" y="30" width="6" height="6" fill="#2f5229"/><rect x="36" y="34" width="6" height="6" fill="#2f5229"/><rect x="30" y="40" width="6" height="6" fill="#69a04f"/><rect x="36" y="40" width="6" height="6" fill="#69a04f"/><rect x="48" y="40" width="6" height="6" fill="#4a7a3c"/><rect x="54" y="40" width="6" height="6" fill="#2f5229"/><rect x="30" y="46" width="6" height="6" fill="#2f5229"/><rect x="36" y="46" width="6" height="6" fill="#2f5229"/><rect x="42" y="46" width="6" height="6" fill="#2f5229"/><rect x="48" y="46" width="6" height="6" fill="#2f5229"/><rect x="54" y="46" width="6" height="6" fill="#2f5229"/><rect x="864" y="46" width="6" height="6" fill="#2f5229"/><rect x="870" y="46" width="6" height="6" fill="#2f5229"/><rect x="876" y="46" width="6" height="6" fill="#2f5229"/></g></svg>