<svg xmlns="http://www.w3.org/2000/svg" width="900" height="190" viewBox="0 0 900 190" shape-rendering="crispEdges" role="img" aria-label="Production-grade distributed news crawler, real-time processing pipeline and AI-powered analytics dashboard, self-hosted on your own hardware."><style></style><rect width="900" height="190" fill="#151618"/><rect x="1" y="1" width="898" height="188" fill="none" stroke="#3a3b3f" stroke-width="2"/><rect x="24" y="24" width="84" height="84" fill="#2a2b2e"/><rect x="24" y="24" width="84" height="3" fill="#0e0e10"/><rect x="24" y="24" width="3" height="84" fill="#0e0e10"/><rect x="24" y="105" width="84" height="3" fill="#5a5b60"/><rect x="105" y="24" width="3" height="84" fill="#5a5b60"/><path fill="#ffc950" d="M50 34h8v8h-8zM58 34h8v8h-8zM66 34h8v8h-8zM74 34h8v8h-8zM82 34h8v8h-8zM90 34h8v8h-8zM42 42h8v8h-8zM90 42h8v8h-8zM42 50h8v8h-8zM90 50h8v8h-8zM42 58h8v8h-8zM90 58h8v8h-8zM42 66h8v8h-8zM90 66h8v8h-8zM42 74h8v8h-8zM90 74h8v8h-8zM42 82h8v8h-8zM90 82h8v8h-8zM50 90h8v8h-8zM58 90h8v8h-8zM66 90h8v8h-8zM74 90h8v8h-8zM82 90h8v8h-8zM90 90h8v8h-8z"/><path fill="#e9e9e9" d="M50 42h8v8h-8zM58 42h8v8h-8zM66 42h8v8h-8zM74 42h8v8h-8zM82 42h8v8h-8zM50 50h8v8h-8zM74 50h8v8h-8zM82 50h8v8h-8zM50 58h8v8h-8zM58 58h8v8h-8zM66 58h8v8h-8zM74 58h8v8h-8zM82 58h8v8h-8zM50 66h8v8h-8zM82 66h8v8h-8zM50 74h8v8h-8zM58 74h8v8h-8zM66 74h8v8h-8zM74 74h8v8h-8zM82 74h8v8h-8zM50 82h8v8h-8zM74 82h8v8h-8zM82 82h8v8h-8z"/><path fill="#7f7f7f" d="M58 50h8v8h-8zM66 50h8v8h-8zM58 66h8v8h-8zM66 66h8v8h-8zM74 66h8v8h-8zM58 82h8v8h-8zM66 82h8v8h-8z"/><text x="128" y="46" font-size="15" fill="#d4d4d4" font-family="'DejaVu Sans Mono',Consolas,'Courier New',monospace">Production-grade distributed news crawler, real-time processing pipeline</text><text x="128" y="70" font-size="15" fill="#d4d4d4" font-family="'DejaVu Sans Mono',Consolas,'Courier New',monospace">and AI-powered analytics dashboard, self-hosted on your own hardware.</text><rect x="128" y="106" width="113" height="26" fill="#202124" stroke="#4a4a4a" stroke-width="2"/><rect x="128" y="106" width="113" height="3" fill="#6a6a6a"/><text x="139" y="124" font-size="12" fill="#b8b8b8" font-family="'DejaVu Sans Mono',Consolas,'Courier New',monospace">Python 3.11+</text><rect x="249.2" y="106" width="98" height="26" fill="#202124" stroke="#4a4a4a" stroke-width="2"/><rect x="249.2" y="106" width="98" height="3" fill="#6a6a6a"/><text x="260.2" y="124" font-size="12" fill="#b8b8b8" font-family="'DejaVu Sans Mono',Consolas,'Courier New',monospace">Next.js 14</text><rect x="355.2" y="106" width="75" height="26" fill="#202124" stroke="#4a4a4a" stroke-width="2"/><rect x="355.2" y="106" width="75" height="3" fill="#6a6a6a"/><text x="366.2" y="124" font-size="12" fill="#b8b8b8" font-family="'DejaVu Sans Mono',Consolas,'Courier New',monospace">FastAPI</text><rect x="438.4" y="106" width="60" height="26" fill="#202124" stroke="#4a4a4a" stroke-width="2"/><rect x="438.4" y="106" width="60" height="3" fill="#6a6a6a"/><text x="449.4" y="124" font-size="12" fill="#b8b8b8" font-family="'DejaVu Sans Mono',Consolas,'Courier New',monospace">Kafka</text><rect x="506.4" y="106" width="98" height="26" fill="#202124" stroke="#4a4a4a" stroke-width="2"/><rect x="506.4" y="106" width="98" height="3" fill="#6a6a6a"/><text x="517.4" y="124" font-size="12" fill="#b8b8b8" font-family="'DejaVu Sans Mono',Consolas,'Courier New',monospace">PostgreSQL</text><rect x="612.4" y="106" width="98" height="26" fill="#202124" stroke="#4a4a4a" stroke-width="2"/><rect x="612.4" y="106" width="98" height="3" fill="#6a6a6a"/><text x="623.4" y="124" font-size="12" fill="#b8b8b8" font-family="'DejaVu Sans Mono',Consolas,'Courier New',monospace">ClickHouse</text><rect x="718.4" y="106" width="60" height="26" fill="#202124" stroke="#4a4a4a" stroke-width="2"/><rect x="718.4" y="106" width="60" height="3" fill="#6a6a6a"/><text x="729.4" y="124" font-size="12" fill="#b8b8b8" font-family="'DejaVu Sans Mono',Consolas,'Courier New',monospace">Neo4j</text><rect x="786.4" y="106" width="60" height="26" fill="#202124" stroke="#4a4a4a" stroke-width="2"/><rect x="786.4" y="106" width="60" height="3" fill="#6a6a6a"/><text x="797.4" y="124" font-size="12" fill="#b8b8b8" font-family="'DejaVu Sans Mono',Consolas,'Courier New',monospace">Redis</text><rect x="128" y="140" width="113" height="26" fill="#202124" stroke="#d9a441" stroke-width="2"/><rect x="128" y="140" width="113" height="3" fill="#d9a441"/><text x="139" y="158" font-size="12" fill="#d9a441" font-family="'DejaVu Sans Mono',Consolas,'Courier New',monospace">7 live pages</text><rect x="249.2" y="140" width="128" height="26" fill="#202124" stroke="#d9a441" stroke-width="2"/><rect x="249.2" y="140" width="128" height="3" fill="#d9a441"/><text x="260.2" y="158" font-size="12" fill="#d9a441" font-family="'DejaVu Sans Mono',Consolas,'Courier New',monospace">7 source types</text></svg>