<svg xmlns="http://www.w3.org/2000/svg" width="900" height="52" viewBox="0 0 900 52" shape-rendering="crispEdges" role="img" aria-label="Architecture"><style></style><rect width="900" height="52" fill="#1d1e21"/><rect width="900" height="4" fill="#8a8a8a"/><rect y="48" width="900" height="4" fill="#4a4a4a"/><rect width="4" height="52" fill="#8a8a8a"/><rect x="896" width="4" height="52" fill="#4a4a4a"/><rect x="20" y="18" width="16" height="16" fill="#d9a441"/><rect x="20" y="18" width="16" height="3" fill="#f3d089"/><rect x="20" y="31" width="16" height="3" fill="#9a7428"/><path fill="#000000" d="M57 16h9v3h-9zM54 19h3v3h-3zM66 19h3v3h-3zM54 22h3v3h-3zM66 22h3v3h-3zM54 25h15v3h-15zM54 28h3v3h-3zM66 28h3v3h-3zM54 31h3v3h-3zM66 31h3v3h-3zM54 34h3v3h-3zM66 34h3v3h-3zM72 16h12v3h-12zM72 19h3v3h-3zM84 19h3v3h-3zM72 22h3v3h-3zM84 22h3v3h-3zM72 25h12v3h-12zM72 28h3v3h-3zM78 28h3v3h-3zM72 31h3v3h-3zM81 31h3v3h-3zM72 34h3v3h-3zM84 34h3v3h-3zM93 16h12v3h-12zM90 19h3v3h-3zM90 22h3v3h-3zM90 25h3v3h-3zM90 28h3v3h-3zM90 31h3v3h-3zM93 34h12v3h-12zM108 16h3v3h-3zM120 16h3v3h-3zM108 19h3v3h-3zM120 19h3v3h-3zM108 22h3v3h-3zM120 22h3v3h-3zM108 25h15v3h-15zM108 28h3v3h-3zM120 28h3v3h-3zM108 31h3v3h-3zM120 31h3v3h-3zM108 34h3v3h-3zM120 34h3v3h-3zM126 16h15v3h-15zM132 19h3v3h-3zM132 22h3v3h-3zM132 25h3v3h-3zM132 28h3v3h-3zM132 31h3v3h-3zM126 34h15v3h-15zM144 16h15v3h-15zM150 19h3v3h-3zM150 22h3v3h-3zM150 25h3v3h-3zM150 28h3v3h-3zM150 31h3v3h-3zM150 34h3v3h-3zM162 16h15v3h-15zM162 19h3v3h-3zM162 22h3v3h-3zM162 25h12v3h-12zM162 28h3v3h-3zM162 31h3v3h-3zM162 34h15v3h-15zM183 16h12v3h-12zM180 19h3v3h-3zM180 22h3v3h-3zM180 25h3v3h-3zM180 28h3v3h-3zM180 31h3v3h-3zM183 34h12v3h-12zM198 16h15v3h-15zM204 19h3v3h-3zM204 22h3v3h-3zM204 25h3v3h-3zM204 28h3v3h-3zM204 31h3v3h-3zM204 34h3v3h-3zM216 16h3v3h-3zM228 16h3v3h-3zM216 19h3v3h-3zM228 19h3v3h-3zM216 22h3v3h-3zM228 22h3v3h-3zM216 25h3v3h-3zM228 25h3v3h-3zM216 28h3v3h-3zM228 28h3v3h-3zM216 31h3v3h-3zM228 31h3v3h-3zM219 34h9v3h-9zM234 16h12v3h-12zM234 19h3v3h-3zM246 19h3v3h-3zM234 22h3v3h-3zM246 22h3v3h-3zM234 25h12v3h-12zM234 28h3v3h-3zM240 28h3v3h-3zM234 31h3v3h-3zM243 31h3v3h-3zM234 34h3v3h-3zM246 34h3v3h-3zM252 16h15v3h-15zM252 19h3v3h-3zM252 22h3v3h-3zM252 25h12v3h-12zM252 28h3v3h-3zM252 31h3v3h-3zM252 34h15v3h-15z"/><path fill="#ececec" d="M55 14h9v3h-9zM52 17h3v3h-3zM64 17h3v3h-3zM52 20h3v3h-3zM64 20h3v3h-3zM52 23h15v3h-15zM52 26h3v3h-3zM64 26h3v3h-3zM52 29h3v3h-3zM64 29h3v3h-3zM52 32h3v3h-3zM64 32h3v3h-3zM70 14h12v3h-12zM70 17h3v3h-3zM82 17h3v3h-3zM70 20h3v3h-3zM82 20h3v3h-3zM70 23h12v3h-12zM70 26h3v3h-3zM76 26h3v3h-3zM70 29h3v3h-3zM79 29h3v3h-3zM70 32h3v3h-3zM82 32h3v3h-3zM91 14h12v3h-12zM88 17h3v3h-3zM88 20h3v3h-3zM88 23h3v3h-3zM88 26h3v3h-3zM88 29h3v3h-3zM91 32h12v3h-12zM106 14h3v3h-3zM118 14h3v3h-3zM106 17h3v3h-3zM118 17h3v3h-3zM106 20h3v3h-3zM118 20h3v3h-3zM106 23h15v3h-15zM106 26h3v3h-3zM118 26h3v3h-3zM106 29h3v3h-3zM118 29h3v3h-3zM106 32h3v3h-3zM118 32h3v3h-3zM124 14h15v3h-15zM130 17h3v3h-3zM130 20h3v3h-3zM130 23h3v3h-3zM130 26h3v3h-3zM130 29h3v3h-3zM124 32h15v3h-15zM142 14h15v3h-15zM148 17h3v3h-3zM148 20h3v3h-3zM148 23h3v3h-3zM148 26h3v3h-3zM148 29h3v3h-3zM148 32h3v3h-3zM160 14h15v3h-15zM160 17h3v3h-3zM160 20h3v3h-3zM160 23h12v3h-12zM160 26h3v3h-3zM160 29h3v3h-3zM160 32h15v3h-15zM181 14h12v3h-12zM178 17h3v3h-3zM178 20h3v3h-3zM178 23h3v3h-3zM178 26h3v3h-3zM178 29h3v3h-3zM181 32h12v3h-12zM196 14h15v3h-15zM202 17h3v3h-3zM202 20h3v3h-3zM202 23h3v3h-3zM202 26h3v3h-3zM202 29h3v3h-3zM202 32h3v3h-3zM214 14h3v3h-3zM226 14h3v3h-3zM214 17h3v3h-3zM226 17h3v3h-3zM214 20h3v3h-3zM226 20h3v3h-3zM214 23h3v3h-3zM226 23h3v3h-3zM214 26h3v3h-3zM226 26h3v3h-3zM214 29h3v3h-3zM226 29h3v3h-3zM217 32h9v3h-9zM232 14h12v3h-12zM232 17h3v3h-3zM244 17h3v3h-3zM232 20h3v3h-3zM244 20h3v3h-3zM232 23h12v3h-12zM232 26h3v3h-3zM238 26h3v3h-3zM232 29h3v3h-3zM241 29h3v3h-3zM232 32h3v3h-3zM244 32h3v3h-3zM250 14h15v3h-15zM250 17h3v3h-3zM250 20h3v3h-3zM250 23h12v3h-12zM250 26h3v3h-3zM250 29h3v3h-3zM250 32h15v3h-15z"/></svg>